<?xml version="1.0" encoding="UTF-8"?>
<svg id="Capa_1" xmlns="http://www.w3.org/2000/svg" version="1.1" viewBox="0 0 3371.28 3375.54">
  <!-- Generator: Adobe Illustrator 30.2.1, SVG Export Plug-In . SVG Version: 2.1.1 Build 1)  -->
  <defs>
    <style>
      .st0 {
        fill: #262626;
      }

      .st1 {
        fill: #fecd52;
      }

      .st2 {
        fill: #fff;
      }
    </style>
  </defs>
  <rect class="st1" x="-9.82" width="3377.52" height="3377.52"/>
  <g>
    <polygon class="st0" points="2215.36 1709.09 2749.15 1954.23 2577.64 2327.57 2044.08 2082.41 2248.07 2633.25 1862.77 2776.11 1658.55 2225.3 1413.42 2759.13 1040.07 2587.63 1285.2 2053.8 734.37 2257.79 591.69 1872.46 1142.3 1668.5 608.74 1423.34 780.24 1049.99 1313.81 1295.15 1109.82 744.32 1495.15 601.41 1699.11 1152.02 1944.28 618.45 2317.85 789.93 2072.72 1323.76 2623.33 1119.8 2766.19 1505.1 2215.36 1709.09"/>
    <polygon class="st2" points="1657.94 1512.73 1655.34 1629.04 1515.69 1625.94 1510.31 1866.6 1394.01 1864.01 1401.99 1507.04 1657.94 1512.73"/>
    <polygon class="st2" points="1983.06 1516.61 1980.46 1632.92 1840.81 1629.82 1835.43 1870.48 1719.13 1867.89 1727.11 1510.92 1983.06 1516.61"/>
  </g>
</svg>